<?xml version="1.0" encoding="UTF-8" standalone="no"?>
<!-- Created with Inkscape (http://www.inkscape.org/) -->

<svg
   xmlns:ns0="http://www.iki.fi/pav/software/textext/"
   xmlns:dc="http://purl.org/dc/elements/1.1/"
   xmlns:cc="http://creativecommons.org/ns#"
   xmlns:rdf="http://www.w3.org/1999/02/22-rdf-syntax-ns#"
   xmlns:svg="http://www.w3.org/2000/svg"
   xmlns="http://www.w3.org/2000/svg"
   xmlns:xlink="http://www.w3.org/1999/xlink"
   xmlns:sodipodi="http://sodipodi.sourceforge.net/DTD/sodipodi-0.dtd"
   xmlns:inkscape="http://www.inkscape.org/namespaces/inkscape"
   width="744.09448819"
   height="1052.3622047"
   id="svg2"
   version="1.1"
   inkscape:version="0.48.4 r9939"
   sodipodi:docname="chung_0_degrees.svg"
   inkscape:export-filename="/home/tass/projects/gdansk/presentation/pictures/chung_10_degrees_walkoff.png"
   inkscape:export-xdpi="179.99998"
   inkscape:export-ydpi="179.99998">
  <sodipodi:namedview
     id="base"
     pagecolor="#ffffff"
     bordercolor="#666666"
     borderopacity="1.0"
     inkscape:pageopacity="0.0"
     inkscape:pageshadow="2"
     inkscape:zoom="2.8"
     inkscape:cx="304.54372"
     inkscape:cy="662.50443"
     inkscape:document-units="px"
     inkscape:current-layer="layer1"
     showgrid="false"
     inkscape:window-width="1920"
     inkscape:window-height="1025"
     inkscape:window-x="-2"
     inkscape:window-y="-3"
     inkscape:window-maximized="1" />
  <defs
     id="defs4">
    <marker
       style="overflow:visible;"
       id="Arrow1Lend"
       refX="0.0"
       refY="0.0"
       orient="auto"
       inkscape:stockid="Arrow1Lend">
      <path
         transform="scale(0.8) rotate(180) translate(12.5,0)"
         style="fill-rule:evenodd;stroke:#000000;stroke-width:1.0pt;marker-start:none;"
         d="M 0.0,0.0 L 5.0,-5.0 L -12.5,0.0 L 5.0,5.0 L 0.0,0.0 z "
         id="path3826" />
    </marker>
    <marker
       style="overflow:visible;"
       id="Arrow1Lend5"
       refX="0.0"
       refY="0.0"
       orient="auto"
       inkscape:stockid="Arrow1Lend5">
      <path
         transform="scale(0.8) rotate(180) translate(12.5,0)"
         style="marker-start:none;stroke:#ff0000;stroke-width:1.0pt;fill:#ff0000;fill-rule:evenodd"
         d="M 0.0,0.0 L 5.0,-5.0 L -12.5,0.0 L 5.0,5.0 L 0.0,0.0 z "
         id="path4277" />
    </marker>
    <marker
       style="overflow:visible"
       id="Arrow1Lend5-0"
       refX="0"
       refY="0"
       orient="auto"
       inkscape:stockid="Arrow1Lend5">
      <path
         transform="matrix(-0.8,0,0,-0.8,-10,0)"
         style="fill:#ff0000;fill-rule:evenodd;stroke:#ff0000;stroke-width:1pt;marker-start:none"
         d="M 0,0 5,-5 -12.5,0 5,5 0,0 z"
         id="path4277-8"
         inkscape:connector-curvature="0" />
    </marker>
    <marker
       style="overflow:visible;"
       id="Arrow1Lend5t"
       refX="0.0"
       refY="0.0"
       orient="auto"
       inkscape:stockid="Arrow1Lend5t">
      <path
         transform="scale(0.8) rotate(180) translate(12.5,0)"
         style="fill-rule:evenodd;marker-start:none;stroke:#0000ff;stroke-width:1.0pt;fill:#0000ff"
         d="M 0.0,0.0 L 5.0,-5.0 L -12.5,0.0 L 5.0,5.0 L 0.0,0.0 z "
         id="path4433" />
    </marker>
  </defs>
  <metadata
     id="metadata7">
    <rdf:RDF>
      <cc:Work
         rdf:about="">
        <dc:format>image/svg+xml</dc:format>
        <dc:type
           rdf:resource="http://purl.org/dc/dcmitype/StillImage" />
        <dc:title></dc:title>
      </cc:Work>
    </rdf:RDF>
  </metadata>
  <g
     id="layer1"
     inkscape:groupmode="layer"
     inkscape:label="Layer 1">
    <rect
       y="310.53143"
       x="442.44681"
       height="15.657364"
       width="52.149128"
       id="rect3322"
       style="fill:#666666" />
    <g
       id="g3480"
       style="fill:#000000;fill-opacity:1"
       transform="matrix(3.4321394,0,0,3.4321394,-323.21288,-160.73281)"
       ns0:preamble=""
       ns0:text="\\(\\hat f \\odot\\)">
      <defs
         id="defs3482">
        <g
           id="g3484">
          <symbol
             id="textext-14361527-0"
             overflow="visible"
             style="overflow:visible">
            <path
               id="path3487"
               d="M 2.5,-6.921875 1.15625,-5.5625 1.328125,-5.390625 2.5,-6.40625 3.640625,-5.390625 3.8125,-5.5625 z m 0,0"
               style="stroke:none"
               inkscape:connector-curvature="0" />
          </symbol>
          <symbol
             id="textext-14361527-1"
             overflow="visible"
             style="overflow:visible">
            <path
               id="path3490"
               d="m 3.65625,-3.984375 0.859375,0 c 0.203125,0 0.296875,0 0.296875,-0.203125 0,-0.109375 -0.09375,-0.109375 -0.265625,-0.109375 l -0.828125,0 0.203125,-1.140625 c 0.046875,-0.203125 0.1875,-0.90625 0.25,-1.03125 0.078125,-0.1875 0.25,-0.34375 0.46875,-0.34375 0.03125,0 0.296875,0 0.484375,0.1875 -0.4375,0.03125 -0.546875,0.390625 -0.546875,0.53125 0,0.234375 0.1875,0.359375 0.375,0.359375 C 5.21875,-5.734375 5.5,-5.96875 5.5,-6.34375 c 0,-0.453125 -0.453125,-0.6875 -0.859375,-0.6875 -0.34375,0 -0.96875,0.1875 -1.265625,1.171875 -0.0625,0.203125 -0.09375,0.3125 -0.328125,1.5625 l -0.6875,0 c -0.203125,0 -0.3125,0 -0.3125,0.1875 0,0.125 0.09375,0.125 0.28125,0.125 l 0.65625,0 -0.734375,3.9375 c -0.1875,0.96875 -0.359375,1.875 -0.875,1.875 -0.046875,0 -0.28125,0 -0.484375,-0.1875 C 1.359375,1.609375 1.453125,1.25 1.453125,1.109375 1.453125,0.875 1.265625,0.75 1.078125,0.75 0.8125,0.75 0.53125,0.984375 0.53125,1.359375 c 0,0.4375 0.4375,0.6875 0.84375,0.6875 0.546875,0 0.953125,-0.59375 1.125,-0.96875 0.328125,-0.625 0.546875,-1.828125 0.5625,-1.90625 z m 0,0"
               style="stroke:none"
               inkscape:connector-curvature="0" />
          </symbol>
          <symbol
             id="textext-14361527-2"
             overflow="visible"
             style="overflow:visible">
            <path
               id="path3493"
               d="m 7.203125,-2.5 c 0,-1.828125 -1.5,-3.3125 -3.328125,-3.3125 -1.84375,0 -3.328125,1.5 -3.328125,3.3125 0,1.84375 1.5,3.328125 3.328125,3.328125 1.84375,0 3.328125,-1.5 3.328125,-3.328125 z M 3.875,0.578125 C 2.15625,0.578125 0.796875,-0.8125 0.796875,-2.5 c 0,-1.703125 1.390625,-3.0625 3.078125,-3.0625 1.703125,0 3.078125,1.390625 3.078125,3.0625 0,1.71875 -1.40625,3.078125 -3.078125,3.078125 z M 4.5625,-2.5 c 0,-0.375 -0.3125,-0.6875 -0.6875,-0.6875 -0.390625,0 -0.6875,0.34375 -0.6875,0.6875 0,0.390625 0.3125,0.703125 0.6875,0.703125 0.390625,0 0.6875,-0.34375 0.6875,-0.703125 z m 0,0"
               style="stroke:none"
               inkscape:connector-curvature="0" />
          </symbol>
        </g>
      </defs>
      <g
         id="textext-14361527-3">
        <g
           id="g3496"
           style="fill:#000000;fill-opacity:1">
          <use
             id="use3498"
             y="132.136"
             x="225.577"
             xlink:href="#textext-14361527-0"
             width="744.09448"
             height="1052.3622" />
        </g>
        <g
           id="g3500"
           style="fill:#000000;fill-opacity:1">
          <use
             id="use3502"
             y="134.765"
             x="223.43201"
             xlink:href="#textext-14361527-1"
             width="744.09448"
             height="1052.3622" />
        </g>
        <g
           id="g3504"
           style="fill:#000000;fill-opacity:1">
          <use
             id="use3506"
             y="134.765"
             x="229.382"
             xlink:href="#textext-14361527-2"
             width="744.09448"
             height="1052.3622" />
        </g>
      </g>
    </g>
  </g>
</svg>
