<?xml version="1.0" encoding="UTF-8" standalone="no"?>
<!-- Created with Inkscape (http://www.inkscape.org/) -->

<svg
   xmlns:ns0="http://www.iki.fi/pav/software/textext/"
   xmlns:dc="http://purl.org/dc/elements/1.1/"
   xmlns:cc="http://creativecommons.org/ns#"
   xmlns:rdf="http://www.w3.org/1999/02/22-rdf-syntax-ns#"
   xmlns:svg="http://www.w3.org/2000/svg"
   xmlns="http://www.w3.org/2000/svg"
   xmlns:sodipodi="http://sodipodi.sourceforge.net/DTD/sodipodi-0.dtd"
   xmlns:inkscape="http://www.inkscape.org/namespaces/inkscape"
   width="744.09448819"
   height="1052.3622047"
   id="svg2"
   version="1.1"
   inkscape:version="0.48.2 r9819"
   sodipodi:docname="normal_calc_a.svg">
  <sodipodi:namedview
     id="base"
     pagecolor="#ffffff"
     bordercolor="#666666"
     borderopacity="1.0"
     inkscape:pageopacity="0.0"
     inkscape:pageshadow="2"
     inkscape:zoom="1.979899"
     inkscape:cx="277.77678"
     inkscape:cy="528.93178"
     inkscape:document-units="px"
     inkscape:current-layer="layer1"
     showgrid="false"
     inkscape:window-width="1280"
     inkscape:window-height="976"
     inkscape:window-x="-3"
     inkscape:window-y="-3"
     inkscape:window-maximized="1" />
  <defs
     id="defs4">
    <marker
       style="overflow:visible;"
       id="Arrow1Lend"
       refX="0.0"
       refY="0.0"
       orient="auto"
       inkscape:stockid="Arrow1Lend">
      <path
         transform="scale(0.8) rotate(180) translate(12.5,0)"
         style="fill-rule:evenodd;stroke:#000000;stroke-width:1.0pt;marker-start:none;"
         d="M 0.0,0.0 L 5.0,-5.0 L -12.5,0.0 L 5.0,5.0 L 0.0,0.0 z "
         id="path3761" />
    </marker>
    <marker
       style="overflow:visible"
       id="Arrow1Lend-9"
       refX="0"
       refY="0"
       orient="auto"
       inkscape:stockid="Arrow1Lend">
      <path
         transform="matrix(-0.8,0,0,-0.8,-10,0)"
         style="fill-rule:evenodd;stroke:#000000;stroke-width:1pt;marker-start:none"
         d="M 0,0 5,-5 -12.5,0 5,5 0,0 z"
         id="path3761-7"
         inkscape:connector-curvature="0" />
    </marker>
    <marker
       style="overflow:visible"
       id="Arrow1Lend-6"
       refX="0"
       refY="0"
       orient="auto"
       inkscape:stockid="Arrow1Lend">
      <path
         transform="matrix(-0.8,0,0,-0.8,-10,0)"
         style="fill-rule:evenodd;stroke:#000000;stroke-width:1pt;marker-start:none"
         d="M 0,0 5,-5 -12.5,0 5,5 0,0 z"
         id="path3761-1"
         inkscape:connector-curvature="0" />
    </marker>
    <marker
       style="overflow:visible"
       id="Arrow1Lend-0"
       refX="0"
       refY="0"
       orient="auto"
       inkscape:stockid="Arrow1Lend">
      <path
         inkscape:connector-curvature="0"
         transform="matrix(-0.8,0,0,-0.8,-10,0)"
         style="fill-rule:evenodd;stroke:#000000;stroke-width:1pt;marker-start:none"
         d="M 0,0 5,-5 -12.5,0 5,5 0,0 z"
         id="path3761-6" />
    </marker>
    <marker
       style="overflow:visible"
       id="Arrow1Lend-2"
       refX="0"
       refY="0"
       orient="auto"
       inkscape:stockid="Arrow1Lend">
      <path
         inkscape:connector-curvature="0"
         transform="matrix(-0.8,0,0,-0.8,-10,0)"
         style="fill-rule:evenodd;stroke:#000000;stroke-width:1pt;marker-start:none"
         d="M 0,0 5,-5 -12.5,0 5,5 0,0 z"
         id="path3761-0" />
    </marker>
    <marker
       style="overflow:visible"
       id="Arrow1Lend-4"
       refX="0"
       refY="0"
       orient="auto"
       inkscape:stockid="Arrow1Lend">
      <path
         inkscape:connector-curvature="0"
         transform="matrix(-0.8,0,0,-0.8,-10,0)"
         style="fill-rule:evenodd;stroke:#000000;stroke-width:1pt;marker-start:none"
         d="M 0,0 5,-5 -12.5,0 5,5 0,0 z"
         id="path3761-76" />
    </marker>
  </defs>
  <metadata
     id="metadata7">
    <rdf:RDF>
      <cc:Work
         rdf:about="">
        <dc:format>image/svg+xml</dc:format>
        <dc:type
           rdf:resource="http://purl.org/dc/dcmitype/StillImage" />
        <dc:title></dc:title>
      </cc:Work>
    </rdf:RDF>
  </metadata>
  <g
     id="layer1"
     inkscape:groupmode="layer"
     inkscape:label="Layer 1">
    <path
       inkscape:connector-curvature="0"
       id="path2985"
       d="m 242.43661,621.46383 0,-213.57897"
       style="fill:none;stroke:#000000;stroke-width:2.35881543;stroke-linecap:butt;stroke-linejoin:miter;stroke-miterlimit:4;stroke-opacity:1;stroke-dasharray:none;marker-end:url(#Arrow1Lend)" />
    <path
       inkscape:connector-curvature="0"
       id="path2985-3"
       d="m 185.35336,568.79076 213.57897,0"
       style="fill:none;stroke:#000000;stroke-width:2.35881543;stroke-linecap:butt;stroke-linejoin:miter;stroke-miterlimit:4;stroke-opacity:1;stroke-dasharray:none;marker-end:url(#Arrow1Lend)" />
    <path
       sodipodi:nodetypes="cc"
       inkscape:connector-curvature="0"
       id="path2985-3-2"
       d="m 267.50003,553.25121 -129.8215,83.75763"
       style="fill:none;stroke:#000000;stroke-width:2.35118532;stroke-linecap:butt;stroke-linejoin:miter;stroke-miterlimit:4;stroke-opacity:1;stroke-dasharray:none;marker-end:url(#Arrow1Lend)" />
    <g
       ns0:preamble=""
       ns0:text="\\(s_x\\)"
       word-spacing="normal"
       letter-spacing="normal"
       font-size-adjust="none"
       font-stretch="normal"
       font-weight="normal"
       font-variant="normal"
       font-style="normal"
       stroke-miterlimit="10.433"
       xml:space="preserve"
       transform="matrix(3,0,0,-3,-505.04566,2771.2387)"
       id="content"
       style="font-style:normal;font-variant:normal;font-weight:normal;font-stretch:normal;letter-spacing:normal;word-spacing:normal;text-anchor:start;fill:none;stroke:#000000;stroke-linecap:butt;stroke-linejoin:miter;stroke-miterlimit:10.43299961;stroke-opacity:1;stroke-dasharray:none;stroke-dashoffset:0">
<path
   id="path4262"
   d="m 227.33,710.85 -0.03,0 -0.02,-0.01 -0.03,0 -0.02,-0.01 -0.02,0 -0.03,-0.01 -0.02,-0.01 -0.02,-0.01 -0.02,-0.01 -0.02,-0.01 -0.02,-0.01 -0.02,-0.01 -0.02,-0.01 -0.02,-0.02 -0.02,-0.01 -0.01,-0.02 -0.02,-0.01 -0.01,-0.02 -0.02,-0.02 -0.01,-0.02 -0.01,-0.01 -0.01,-0.02 -0.01,-0.02 -0.01,-0.02 -0.01,-0.02 -0.01,-0.02 0,-0.02 -0.01,-0.02 0,-0.02 -0.01,-0.02 0,-0.02 0,-0.02 c 0,-0.14 0.09,-0.29 0.31,-0.29 0.22,0 0.46,0.17 0.46,0.56 0,0.45 -0.43,0.85 -1.19,0.85 -1.31,0 -1.68,-1.01 -1.68,-1.45 0,-0.78 0.74,-0.92 1.02,-0.98 0.52,-0.1 1.04,-0.21 1.04,-0.76 0,-0.26 -0.23,-1.1 -1.42,-1.1 -0.14,0 -0.91,0 -1.14,0.53 0.38,-0.05 0.63,0.25 0.63,0.53 0,0.23 -0.16,0.35 -0.37,0.35 -0.26,0 -0.56,-0.21 -0.56,-0.66 0,-0.57 0.57,-0.96 1.43,-0.96 1.61,0 2,1.2 2,1.65 0,0.36 -0.19,0.61 -0.31,0.72 -0.27,0.28 -0.56,0.33 -1,0.42 -0.36,0.08 -0.75,0.15 -0.75,0.6 0,0.29 0.23,0.89 1.11,0.89 0.25,0 0.75,-0.07 0.9,-0.45 z"
   inkscape:connector-curvature="0"
   style="fill:#000000;stroke-width:0" />
<path
   id="path4264"
   d="m 229.84,706.37 -0.01,-0.02 -0.01,-0.03 -0.01,-0.02 -0.01,-0.03 -0.01,-0.02 -0.01,-0.03 -0.01,-0.02 -0.02,-0.03 -0.01,-0.02 -0.01,-0.03 -0.02,-0.02 -0.02,-0.03 -0.02,-0.02 -0.01,-0.03 -0.02,-0.02 -0.02,-0.03 -0.02,-0.02 -0.03,-0.02 -0.02,-0.02 -0.02,-0.02 -0.03,-0.02 -0.02,-0.02 -0.03,-0.02 -0.03,-0.01 -0.02,-0.02 -0.03,-0.01 -0.03,-0.01 -0.03,-0.01 -0.03,0 -0.03,-0.01 -0.04,0 -0.03,0 c -0.02,0 -0.23,0 -0.38,0.09 0.29,0.09 0.31,0.34 0.31,0.39 0,0.15 -0.12,0.25 -0.28,0.25 -0.19,0 -0.39,-0.16 -0.39,-0.42 0,-0.35 0.39,-0.51 0.73,-0.51 0.32,0 0.6,0.2 0.78,0.49 0.17,-0.36 0.55,-0.49 0.83,-0.49 0.8,0 1.22,0.87 1.22,1.06 0,0.1 -0.09,0.1 -0.11,0.1 -0.1,0 -0.1,-0.04 -0.13,-0.12 -0.15,-0.48 -0.57,-0.84 -0.96,-0.84 -0.27,0 -0.42,0.18 -0.42,0.45 0,0.18 0.17,0.81 0.36,1.58 0.14,0.54 0.45,0.71 0.68,0.71 0.02,0 0.23,0 0.38,-0.09 -0.22,-0.07 -0.31,-0.26 -0.31,-0.39 0,-0.15 0.12,-0.25 0.28,-0.25 0.16,0 0.39,0.13 0.39,0.42 0,0.39 -0.44,0.51 -0.72,0.51 -0.35,0 -0.63,-0.23 -0.78,-0.5 -0.13,0.29 -0.45,0.5 -0.84,0.5 -0.78,0 -1.22,-0.86 -1.22,-1.07 0,-0.09 0.09,-0.09 0.11,-0.09 0.09,0 0.1,0.03 0.14,0.12 0.17,0.54 0.61,0.84 0.95,0.84 0.23,0 0.42,-0.12 0.42,-0.46 0,-0.13 -0.08,-0.48 -0.15,-0.72 z"
   inkscape:connector-curvature="0"
   style="fill:#000000;stroke-width:0" />
</g>    <g
       id="g4322"
       transform="matrix(3,0,0,-3,-320.59358,2720.8393)"
       xml:space="preserve"
       stroke="black"
       stroke-linecap="butt"
       stroke-linejoin="miter"
       stroke-miterlimit="10.433"
       stroke-dasharray="none"
       stroke-dashoffset="0"
       stroke-opacity="1"
       fill="none"
       fill-rule="evenodd"
       fill-opacity="1"
       font-style="normal"
       font-variant="normal"
       font-weight="normal"
       font-stretch="normal"
       font-size-adjust="none"
       letter-spacing="normal"
       word-spacing="normal"
       text-anchor="start"
       ns0:text="\\(s_y\\)"
       ns0:preamble=""
       style="font-style:normal;font-variant:normal;font-weight:normal;font-stretch:normal;letter-spacing:normal;word-spacing:normal;text-anchor:start;fill:none;stroke:#000000;stroke-linecap:butt;stroke-linejoin:miter;stroke-miterlimit:10.43299961;stroke-opacity:1;stroke-dasharray:none;stroke-dashoffset:0">
<path
   d="M227.33,710.85 L227.3,710.85 L227.28,710.84 L227.25,710.84 L227.23,710.83 L227.21,710.83 L227.18,710.82 L227.16,710.81 L227.14,710.8 L227.12,710.79 L227.1,710.78 L227.08,710.77 L227.06,710.76 L227.04,710.75 L227.02,710.73 L227,710.72 L226.99,710.7 L226.97,710.69 L226.96,710.67 L226.94,710.65 L226.93,710.63 L226.92,710.62 L226.91,710.6 L226.9,710.58 L226.89,710.56 L226.88,710.54 L226.87,710.52 L226.87,710.5 L226.86,710.48 L226.86,710.46 L226.85,710.44 L226.85,710.42 L226.85,710.4 C226.85,710.26,226.94,710.11,227.16,710.11 C227.38,710.11,227.62,710.28,227.62,710.67 C227.62,711.12,227.19,711.52,226.43,711.52 C225.12,711.52,224.75,710.51,224.75,710.07 C224.75,709.29,225.49,709.15,225.77,709.09 C226.29,708.99,226.81,708.88,226.81,708.33 C226.81,708.07,226.58,707.23,225.39,707.23 C225.25,707.23,224.48,707.23,224.25,707.76 C224.63,707.71,224.88,708.01,224.88,708.29 C224.88,708.52,224.72,708.64,224.51,708.64 C224.25,708.64,223.95,708.43,223.95,707.98 C223.95,707.41,224.52,707.02,225.38,707.02 C226.99,707.02,227.38,708.22,227.38,708.67 C227.38,709.03,227.19,709.28,227.07,709.39 C226.8,709.67,226.51,709.72,226.07,709.81 C225.71,709.89,225.32,709.96,225.32,710.41 C225.32,710.7,225.55,711.3,226.43,711.3 C226.68,711.3,227.18,711.23,227.33,710.85 Z "
   stroke-width="0"
   fill="black"
   id="path4324" />
<path
   d="M231.97,708.25 L231.98,708.26 L231.98,708.26 L231.98,708.27 L231.98,708.27 L231.98,708.27 L231.98,708.28 L231.98,708.29 L231.99,708.29 L231.99,708.3 L231.99,708.31 L231.99,708.31 L231.99,708.32 L231.99,708.32 L231.99,708.33 L232,708.33 L232,708.34 L232,708.34 L232,708.35 L232,708.35 L232,708.35 L232,708.36 L232,708.36 L232,708.36 L232,708.37 L232,708.38 L232,708.38 L232,708.39 L232,708.39 L232,708.4 L232,708.4 L232,708.41 C232,708.54,231.89,708.63,231.77,708.63 C231.7,708.63,231.56,708.59,231.49,708.46 C231.47,708.42,231.41,708.2,231.38,708.06 L231.23,707.48 C231.19,707.31,230.97,706.44,230.95,706.36 C230.94,706.36,230.64,705.76,230.09,705.76 C229.62,705.76,229.62,706.21,229.62,706.33 C229.62,706.71,229.78,707.15,229.99,707.68 C230.07,707.91,230.11,707.99,230.11,708.11 C230.11,708.44,229.82,708.7,229.45,708.7 C228.74,708.7,228.43,707.75,228.43,707.63 C228.43,707.54,228.53,707.54,228.55,707.54 C228.65,707.54,228.65,707.58,228.67,707.65 C228.85,708.23,229.15,708.5,229.43,708.5 C229.54,708.5,229.6,708.43,229.6,708.26 C229.6,708.1,229.54,707.95,229.5,707.86 C229.17,707.01,229.1,706.75,229.1,706.44 C229.1,706.33,229.1,706,229.37,705.78 C229.59,705.6,229.88,705.56,230.07,705.56 C230.35,705.56,230.6,705.67,230.82,705.87 C230.74,705.49,230.66,705.2,230.37,704.85 C230.18,704.64,229.9,704.41,229.53,704.41 C229.48,704.41,229.15,704.41,229.01,704.64 C229.38,704.68,229.38,705.01,229.38,705.02 C229.38,705.24,229.18,705.28,229.11,705.28 C228.94,705.28,228.71,705.14,228.71,704.82 C228.71,704.47,229.04,704.21,229.54,704.21 C230.24,704.21,231.1,704.76,231.31,705.62 Z "
   stroke-width="0"
   fill="black"
   id="path4326" />
</g>    <g
       style="font-style:normal;font-variant:normal;font-weight:normal;font-stretch:normal;letter-spacing:normal;word-spacing:normal;text-anchor:start;fill:none;stroke:#000000;stroke-linecap:butt;stroke-linejoin:miter;stroke-miterlimit:10.43299961;stroke-opacity:1;stroke-dasharray:none;stroke-dashoffset:0"
       ns0:preamble=""
       ns0:text="\\(s_z\\)"
       text-anchor="start"
       word-spacing="normal"
       letter-spacing="normal"
       font-size-adjust="none"
       font-stretch="normal"
       font-weight="normal"
       font-variant="normal"
       font-style="normal"
       fill-opacity="1"
       fill-rule="evenodd"
       fill="none"
       stroke-opacity="1"
       stroke-dashoffset="0"
       stroke-dasharray="none"
       stroke-miterlimit="10.433"
       stroke-linejoin="miter"
       stroke-linecap="butt"
       stroke="black"
       xml:space="preserve"
       transform="matrix(3,0,0,-3,-412.73643,2552.9822)"
       id="g4377">
<path
   id="path4379"
   fill="black"
   stroke-width="0"
   d="M227.33,710.85 L227.3,710.85 L227.28,710.84 L227.25,710.84 L227.23,710.83 L227.21,710.83 L227.18,710.82 L227.16,710.81 L227.14,710.8 L227.12,710.79 L227.1,710.78 L227.08,710.77 L227.06,710.76 L227.04,710.75 L227.02,710.73 L227,710.72 L226.99,710.7 L226.97,710.69 L226.96,710.67 L226.94,710.65 L226.93,710.63 L226.92,710.62 L226.91,710.6 L226.9,710.58 L226.89,710.56 L226.88,710.54 L226.87,710.52 L226.87,710.5 L226.86,710.48 L226.86,710.46 L226.85,710.44 L226.85,710.42 L226.85,710.4 C226.85,710.26,226.94,710.11,227.16,710.11 C227.38,710.11,227.62,710.28,227.62,710.67 C227.62,711.12,227.19,711.52,226.43,711.52 C225.12,711.52,224.75,710.51,224.75,710.07 C224.75,709.29,225.49,709.15,225.77,709.09 C226.29,708.99,226.81,708.88,226.81,708.33 C226.81,708.07,226.58,707.23,225.39,707.23 C225.25,707.23,224.48,707.23,224.25,707.76 C224.63,707.71,224.88,708.01,224.88,708.29 C224.88,708.52,224.72,708.64,224.51,708.64 C224.25,708.64,223.95,708.43,223.95,707.98 C223.95,707.41,224.52,707.02,225.38,707.02 C226.99,707.02,227.38,708.22,227.38,708.67 C227.38,709.03,227.19,709.28,227.07,709.39 C226.8,709.67,226.51,709.72,226.07,709.81 C225.71,709.89,225.32,709.96,225.32,710.41 C225.32,710.7,225.55,711.3,226.43,711.3 C226.68,711.3,227.18,711.23,227.33,710.85 Z " />
<path
   id="path4381"
   fill="black"
   stroke-width="0"
   d="M229.27,706.24 L229.31,706.28 L229.34,706.31 L229.37,706.34 L229.41,706.38 L229.44,706.41 L229.46,706.43 L229.48,706.45 L229.5,706.47 L229.52,706.49 L229.54,706.51 L229.57,706.53 L229.59,706.55 L229.62,706.57 L229.64,706.6 L229.67,706.62 L229.7,706.65 L229.74,706.67 L229.77,706.7 L229.81,706.73 L229.84,706.76 L229.88,706.8 L229.93,706.83 L229.97,706.87 L230.02,706.9 L230.07,706.94 L230.12,706.99 L230.17,707.03 C230.32,707.15,230.84,707.56,231.04,707.76 C231.47,708.18,231.73,708.53,231.73,708.61 C231.73,708.7,231.64,708.7,231.61,708.7 C231.55,708.7,231.53,708.68,231.49,708.63 C231.28,708.31,231.13,708.2,230.96,708.2 C230.88,708.2,230.78,708.21,230.57,708.41 C230.33,708.65,230.18,708.7,230.02,708.7 C229.46,708.7,229.08,708.09,229.08,707.88 C229.08,707.82,229.15,707.8,229.2,707.8 C229.29,707.8,229.3,707.82,229.33,707.9 C229.43,708.14,229.82,708.16,229.93,708.16 C230.09,708.16,230.27,708.11,230.37,708.09 C230.76,708.01,230.8,708.01,230.98,708.01 C230.8,707.82,230.67,707.7,230.01,707.17 C229.47,706.74,229.28,706.56,229.15,706.42 C228.73,706.01,228.53,705.71,228.53,705.65 C228.53,705.56,228.62,705.56,228.65,705.56 C228.71,705.56,228.73,705.58,228.76,705.63 C228.95,705.9,229.17,706.05,229.4,706.05 C229.49,706.05,229.59,706.05,229.78,705.87 C230,705.67,230.14,705.56,230.36,705.56 C231.1,705.56,231.57,706.4,231.57,706.64 C231.57,706.72,231.49,706.73,231.45,706.73 C231.37,706.73,231.35,706.7,231.33,706.62 C231.19,706.27,230.78,706.1,230.44,706.1 C230.28,706.1,230.11,706.14,229.93,706.18 C229.61,706.25,229.56,706.25,229.43,706.25 C229.42,706.25,229.31,706.25,229.27,706.24 Z " />
</g>    <g
       id="g5154">
      <path
         sodipodi:open="true"
         sodipodi:end="4.7653686"
         sodipodi:start="1.5623117"
         transform="matrix(0.56243063,0,0,1.0709801,-4.437139,34.254628)"
         d="m 436.81036,541.64638 a 45,42.142857 0 1 1 2.00117,-84.22507"
         sodipodi:ry="42.142857"
         sodipodi:rx="45"
         sodipodi:cy="499.50504"
         sodipodi:cx="436.42856"
         id="path4410"
         style="fill:#ffffff;fill-opacity:0;stroke:#000000;stroke-width:3;stroke-miterlimit:4;stroke-opacity:1;stroke-dasharray:none;stroke-dashoffset:0"
         sodipodi:type="arc" />
      <path
         sodipodi:open="true"
         sodipodi:end="4.7653686"
         sodipodi:start="1.5623117"
         transform="matrix(-0.56243063,0,0,1.0709801,488.47621,34.254617)"
         d="m 436.81036,541.64638 a 45,42.142857 0 1 1 2.00117,-84.22507"
         sodipodi:ry="42.142857"
         sodipodi:rx="45"
         sodipodi:cy="499.50504"
         sodipodi:cx="436.42856"
         id="path4410-8"
         style="fill:#ffffff;fill-opacity:0;stroke:#000000;stroke-width:1.8038601;stroke-miterlimit:4;stroke-opacity:1;stroke-dasharray:3.6077202,1.8038601;stroke-dashoffset:0"
         sodipodi:type="arc" />
    </g>
    <g
       id="g5150">
      <path
         sodipodi:open="true"
         sodipodi:end="4.7653686"
         sodipodi:start="1.5623117"
         transform="matrix(0,-0.38902105,1.1598334,0,-335.77625,740.77514)"
         d="m 436.81036,541.64638 a 45,42.142857 0 1 1 2.00117,-84.22507"
         sodipodi:ry="42.142857"
         sodipodi:rx="45"
         sodipodi:cy="499.50504"
         sodipodi:cx="436.42856"
         id="path4410-5"
         style="fill:#ffffff;fill-opacity:0;stroke:#000000;stroke-width:3;stroke-miterlimit:4;stroke-opacity:1;stroke-dasharray:none;stroke-dashoffset:0"
         sodipodi:type="arc" />
      <path
         sodipodi:open="true"
         sodipodi:end="4.7653686"
         sodipodi:start="1.5623117"
         transform="matrix(0,0.38902105,1.1598334,0,-335.77626,399.83769)"
         d="m 436.81036,541.64638 a 45,42.142857 0 1 1 2.00117,-84.22507"
         sodipodi:ry="42.142857"
         sodipodi:rx="45"
         sodipodi:cy="499.50504"
         sodipodi:cx="436.42856"
         id="path4410-8-0"
         style="fill:#ffffff;fill-opacity:0;stroke:#000000;stroke-width:2.08422058;stroke-miterlimit:4;stroke-opacity:1;stroke-dasharray:4.16844115,2.08422058;stroke-dashoffset:0"
         sodipodi:type="arc" />
    </g>
    <path
       sodipodi:type="arc"
       style="fill:#ffffff;fill-opacity:0;stroke:#000000;stroke-width:2.25;stroke-miterlimit:4;stroke-opacity:1;stroke-dasharray:none;stroke-dashoffset:0"
       id="path4473"
       sodipodi:cx="301.53055"
       sodipodi:cy="761.9433"
       sodipodi:rx="67.175148"
       sodipodi:ry="32.829956"
       d="m 368.7057,761.9433 a 67.175148,32.829956 0 1 1 -134.3503,0 67.175148,32.829956 0 1 1 134.3503,0 z"
       transform="matrix(0.73033166,0,0,1.3775513,23.781659,-480.35926)" />
    <path
       inkscape:connector-curvature="0"
       id="path2985-3-3"
       d="m 242.7233,569.00419 22.15506,-34.09265"
       style="fill:none;stroke:#000000;stroke-width:1.15900004;stroke-linecap:butt;stroke-linejoin:miter;stroke-miterlimit:4;stroke-opacity:1;stroke-dasharray:none;marker-end:url(#Arrow1Lend)"
       sodipodi:nodetypes="cc" />
    <path
       inkscape:connector-curvature="0"
       id="path2985-3-3-5"
       d="M 265.73081,533.62232 292.2884,492.51168"
       style="fill:none;stroke:#000000;stroke-width:0.917;stroke-linecap:butt;stroke-linejoin:miter;stroke-miterlimit:4;stroke-opacity:1;stroke-dasharray:0.917, 0.917;stroke-dashoffset:0;marker-end:url(#Arrow1Lend)"
       sodipodi:nodetypes="cc" />
    <path
       style="opacity:0.72373538;fill:#ffffff;fill-opacity:1;stroke:#000000;stroke-width:1px;stroke-linecap:butt;stroke-linejoin:miter;stroke-opacity:1"
       d="m 264.57724,488.48002 c 31.41825,4.8422 29.00265,19.2592 28.92857,34.28571 9.49505,-8.71729 21.34824,-16.07814 32.5,-18.21428 1.54749,-16.61378 -2.16518,-30.22726 -26.42857,-35 -23.75159,2.46463 -29.16193,10.92749 -35,18.92857 z"
       id="path4903"
       inkscape:connector-curvature="0"
       sodipodi:nodetypes="ccccc" />
    <path
       sodipodi:type="arc"
       style="fill:#000000;fill-opacity:1;stroke:#000000;stroke-width:0.85900003;stroke-miterlimit:4;stroke-opacity:1;stroke-dasharray:none;stroke-dashoffset:0"
       id="path4905"
       sodipodi:cx="183.75"
       sodipodi:cy="473.79074"
       sodipodi:rx="3.3928571"
       sodipodi:ry="2.5"
       d="m 187.14286,473.79074 a 3.3928571,2.5 0 1 1 -6.78572,0 3.3928571,2.5 0 1 1 6.78572,0 z"
       transform="matrix(0.72061885,0,0,0.97798267,161.30996,26.844291)" />
    <g
       style="font-style:normal;font-variant:normal;font-weight:normal;font-stretch:normal;letter-spacing:normal;word-spacing:normal;text-anchor:start;fill:none;stroke:#000000;stroke-linecap:butt;stroke-linejoin:miter;stroke-miterlimit:10.43299961;stroke-opacity:1;stroke-dasharray:none;stroke-dashoffset:0"
       id="g4945"
       transform="matrix(3,0,0,-3,-426.75883,2642.4442)"
       xml:space="preserve"
       stroke-miterlimit="10.433"
       font-style="normal"
       font-variant="normal"
       font-weight="normal"
       font-stretch="normal"
       font-size-adjust="none"
       letter-spacing="normal"
       word-spacing="normal"
       ns0:text="\\(\\vec n\\)"
       ns0:preamble="">
<path
   style="fill:#000000;stroke-width:0"
   inkscape:connector-curvature="0"
   d="m 228.52,713.05 -0.02,-0.02 -0.01,-0.01 -0.02,-0.01 -0.01,-0.02 -0.02,-0.01 -0.02,-0.02 -0.02,-0.02 -0.01,-0.01 -0.02,-0.02 -0.02,-0.02 -0.04,-0.04 -0.04,-0.04 -0.04,-0.04 -0.02,-0.02 -0.02,-0.02 -0.01,-0.02 -0.02,-0.02 -0.02,-0.02 -0.01,-0.02 -0.01,-0.02 -0.02,-0.02 -0.01,-0.02 -0.01,-0.02 -0.01,-0.02 -0.01,-0.02 0,-0.02 -0.01,-0.02 0,-0.01 0,-0.02 c 0,-0.1 0.1,-0.2 0.2,-0.2 0.09,0 0.14,0.07 0.19,0.13 0.12,0.15 0.35,0.43 0.79,0.65 0.07,0.04 0.17,0.09 0.17,0.21 0,0.09 -0.08,0.15 -0.14,0.2 -0.22,0.14 -0.33,0.32 -0.41,0.56 -0.02,0.09 -0.06,0.22 -0.2,0.22 -0.14,0 -0.2,-0.13 -0.2,-0.21 0,-0.05 0.08,-0.37 0.24,-0.57 h -3.36 c -0.17,0 -0.35,0 -0.35,-0.2 0,-0.2 0.18,-0.2 0.35,-0.2 z"
   id="path4947" />
<path
   style="fill:#000000;stroke-width:0"
   inkscape:connector-curvature="0"
   d="m 224.31,707.71 0,-0.01 0,-0.02 -0.01,-0.01 0,-0.02 -0.01,-0.03 -0.01,-0.03 0,-0.03 -0.01,-0.04 -0.01,-0.03 -0.01,-0.03 0,-0.01 0,-0.02 -0.01,-0.01 0,-0.02 0,-0.01 0,-0.01 -0.01,-0.02 0,-0.01 0,-0.01 0,-0.01 0,-0.01 -0.01,-0.01 0,-0.01 0,0 0,-0.01 0,-0.01 c 0,-0.18 0.14,-0.26 0.29,-0.26 0.12,0 0.3,0.07 0.37,0.27 0.01,0.02 0.13,0.49 0.19,0.74 l 0.22,0.9 c 0.06,0.22 0.12,0.43 0.17,0.66 0.04,0.17 0.12,0.46 0.13,0.5 0.15,0.31 0.67,1.21 1.62,1.21 0.45,0 0.54,-0.36 0.54,-0.69 0,-0.62 -0.49,-1.89 -0.65,-2.32 -0.09,-0.23 -0.1,-0.35 -0.1,-0.46 0,-0.47 0.35,-0.81 0.82,-0.81 0.94,0 1.31,1.45 1.31,1.53 0,0.1 -0.09,0.1 -0.12,0.1 -0.1,0 -0.1,-0.03 -0.15,-0.18 -0.2,-0.68 -0.53,-1.24 -1.02,-1.24 -0.17,0 -0.24,0.1 -0.24,0.33 0,0.25 0.09,0.49 0.18,0.71 0.19,0.53 0.61,1.62 0.61,2.19 0,0.67 -0.43,1.06 -1.15,1.06 -0.89,0 -1.38,-0.63 -1.55,-0.86 -0.05,0.56 -0.46,0.86 -0.92,0.86 -0.46,0 -0.65,-0.38 -0.75,-0.56 -0.16,-0.34 -0.3,-0.93 -0.3,-0.97 0,-0.1 0.1,-0.1 0.12,-0.1 0.1,0 0.11,0.01 0.17,0.23 0.17,0.71 0.37,1.18 0.73,1.18 0.2,0 0.31,-0.12 0.31,-0.45 0,-0.21 -0.03,-0.32 -0.16,-0.84 z"
   id="path4949" />
</g>    <g
       style="font-style:normal;font-variant:normal;font-weight:normal;font-stretch:normal;letter-spacing:normal;word-spacing:normal;text-anchor:start;fill:none;stroke:#000000;stroke-linecap:butt;stroke-linejoin:miter;stroke-miterlimit:10.43299961;stroke-opacity:1;stroke-dasharray:none;stroke-dashoffset:0"
       ns0:preamble=""
       ns0:text="\\(\\vec s\\)"
       word-spacing="normal"
       letter-spacing="normal"
       font-size-adjust="none"
       font-stretch="normal"
       font-weight="normal"
       font-variant="normal"
       font-style="normal"
       stroke-miterlimit="10.433"
       xml:space="preserve"
       transform="matrix(3,0,0,-3,-370.06825,2622.5923)"
       id="g5055">
<path
   id="path5057"
   d="m 228.42,713.05 -0.02,-0.02 -0.01,-0.01 -0.02,-0.01 -0.01,-0.02 -0.02,-0.01 -0.02,-0.02 -0.02,-0.02 -0.02,-0.01 -0.01,-0.02 -0.02,-0.02 -0.04,-0.04 -0.04,-0.04 -0.04,-0.04 -0.02,-0.02 -0.02,-0.02 -0.01,-0.02 -0.02,-0.02 -0.02,-0.02 -0.01,-0.02 -0.01,-0.02 -0.02,-0.02 -0.01,-0.02 -0.01,-0.02 -0.01,-0.02 -0.01,-0.02 0,-0.02 -0.01,-0.02 0,-0.01 0,-0.02 c 0,-0.1 0.1,-0.2 0.2,-0.2 0.09,0 0.14,0.07 0.19,0.13 0.12,0.15 0.35,0.43 0.78,0.65 0.08,0.04 0.17,0.09 0.17,0.21 0,0.09 -0.07,0.15 -0.14,0.2 -0.22,0.14 -0.32,0.32 -0.4,0.56 -0.02,0.09 -0.06,0.22 -0.2,0.22 -0.14,0 -0.2,-0.13 -0.2,-0.21 0,-0.05 0.08,-0.37 0.24,-0.57 h -3.36 c -0.17,0 -0.35,0 -0.35,-0.2 0,-0.2 0.18,-0.2 0.35,-0.2 z"
   inkscape:connector-curvature="0"
   style="fill:#000000;stroke-width:0" />
<path
   id="path5059"
   d="m 227.33,710.85 -0.03,0 -0.02,-0.01 -0.03,0 -0.02,-0.01 -0.02,0 -0.03,-0.01 -0.02,-0.01 -0.02,-0.01 -0.02,-0.01 -0.02,-0.01 -0.02,-0.01 -0.02,-0.01 -0.02,-0.01 -0.02,-0.02 -0.02,-0.01 -0.01,-0.02 -0.02,-0.01 -0.01,-0.02 -0.02,-0.02 -0.01,-0.02 -0.01,-0.01 -0.01,-0.02 -0.01,-0.02 -0.01,-0.02 -0.01,-0.02 -0.01,-0.02 0,-0.02 -0.01,-0.02 0,-0.02 -0.01,-0.02 0,-0.02 0,-0.02 c 0,-0.14 0.09,-0.29 0.31,-0.29 0.22,0 0.46,0.17 0.46,0.56 0,0.45 -0.43,0.85 -1.19,0.85 -1.31,0 -1.68,-1.01 -1.68,-1.45 0,-0.78 0.74,-0.92 1.02,-0.98 0.52,-0.1 1.04,-0.21 1.04,-0.76 0,-0.26 -0.23,-1.1 -1.42,-1.1 -0.14,0 -0.91,0 -1.14,0.53 0.38,-0.05 0.63,0.25 0.63,0.53 0,0.23 -0.16,0.35 -0.37,0.35 -0.26,0 -0.56,-0.21 -0.56,-0.66 0,-0.57 0.57,-0.96 1.43,-0.96 1.61,0 2,1.2 2,1.65 0,0.36 -0.19,0.61 -0.31,0.72 -0.27,0.28 -0.56,0.33 -1,0.42 -0.36,0.08 -0.75,0.15 -0.75,0.6 0,0.29 0.24,0.89 1.11,0.89 0.25,0 0.75,-0.07 0.9,-0.45 z"
   inkscape:connector-curvature="0"
   style="fill:#000000;stroke-width:0" />
</g>  </g>
</svg>
